<?xml version="1.0" encoding="UTF-8"?>
<svg viewBox="0 0 722 644" xmlns="http://www.w3.org/2000/svg">
<circle cx="174.6" cy="518.67" r="3.5" fill="#C4C4C4"/>
<circle cx="209.6" cy="518.67" r="3.5" fill="#C4C4C4"/>
<circle cx="244.6" cy="518.67" r="3.5" fill="#C4C4C4"/>
<circle cx="174.6" cy="497.67" r="3.5" fill="#C4C4C4"/>
<circle cx="209.6" cy="497.67" r="3.5" fill="#C4C4C4"/>
<circle cx="244.6" cy="497.67" r="3.5" fill="#C4C4C4"/>
<circle cx="174.6" cy="602.67" r="3.5" fill="#C4C4C4"/>
<circle cx="209.6" cy="602.67" r="3.5" fill="#C4C4C4"/>
<circle cx="244.6" cy="602.67" r="3.5" fill="#C4C4C4"/>
<circle cx="174.6" cy="581.67" r="3.5" fill="#C4C4C4"/>
<circle cx="209.6" cy="581.67" r="3.5" fill="#C4C4C4"/>
<circle cx="244.6" cy="581.67" r="3.5" fill="#C4C4C4"/>
<circle cx="174.6" cy="560.67" r="3.5" fill="#C4C4C4"/>
<circle cx="209.6" cy="560.67" r="3.5" fill="#C4C4C4"/>
<circle cx="244.6" cy="560.67" r="3.5" fill="#C4C4C4"/>
<circle cx="174.6" cy="539.67" r="3.5" fill="#C4C4C4"/>
<circle cx="209.6" cy="539.67" r="3.5" fill="#C4C4C4"/>
<circle cx="244.6" cy="539.67" r="3.5" fill="#C4C4C4"/>
<path d="m590.1 569.17l32.043 55.5h-64.086l32.043-55.5z" fill="#fff"/>
<path d="m279.6 235.17l-1.154 2-222.42 385.25-1.1547 2h220.38l-0.289 0.5h347.28l-1.154-2-171.33-296.75-1.155-2-1.154 2-57.654 99.858-109.04-188.86-1.155-2zm339.17 387.75h-115.31l-0.289-0.5-43.264-74.936 77.591-65.325 81.268 140.76zm-82.284-142.52l-77.591 65.326-9.964-17.258 77.591-65.326 9.964 17.258zm-23.063-39.946l-64.827-112.28-57.653 99.858 44.889 77.75 77.591-65.325zm1.015 1.759l11.068 19.17-77.59 65.326-11.068-19.17 77.59-65.326zm-13.572 180.21l-111.08-192.39-111.08 192.39h222.16zm-224.46 0l112.23-194.39-109.04-188.86-221.27 383.25h218.08z" clip-rule="evenodd" fill="#535560" fill-rule="evenodd"/>
<path d="m112.08 228.18c-13.498 5.878-29.267 6.508-43.968 0.489-25.522-10.447-39.288-37.432-33.983-63.497-13.016 5.668-23.922 16.218-29.725 30.394-11.822 28.878 2.0055 61.872 30.884 73.694 28.878 11.821 61.872-2.006 73.694-30.884 1.374-3.356 2.401-6.768 3.099-10.196z" clip-rule="evenodd" fill="#C4C4C4" fill-rule="evenodd"/>
<rect transform="rotate(-19.124 659.39 85.443)" x="659.39" y="85.443" width="4.3333" height="4.3333" fill="#C4C4C4"/>
<rect transform="rotate(-19.124 644.91 59.123)" x="644.91" y="59.123" width="5.7778" height="5.7778" fill="#C4C4C4"/>
<rect transform="rotate(-19.124 633.9 36.186)" x="633.9" y="36.186" width="7.2222" height="7.2222" fill="#C4C4C4"/>
<rect transform="rotate(-19.124 600.61 21.741)" x="600.61" y="21.741" width="11.556" height="11.556" fill="#C4C4C4"/>
<rect transform="rotate(-19.124 650.56 110.67)" x="650.56" y="110.67" width="5.7778" height="5.7778" fill="#C4C4C4"/>
<rect transform="rotate(-19.124 686.06 138.11)" x="686.06" y="138.11" width="5.7778" height="5.7778" fill="#C4C4C4"/>
<rect transform="rotate(-19.124 709.81 118.41)" x="709.81" y="118.41" width="6.5" height="6.5" fill="#C4C4C4"/>
</svg>
